# xmcd
#
# Track frame offsets: 
#        150
#        10244
#        27079
#        36867
#        48877
#        61415
#        75242
#        91295
#        109316
#        120264
#        130390
#        141144
#        152493
#        160863
#        172741
#        186925
#        196290
#        211274
#        218711
#        224881
#        234991
#
# Disc length: 3355 seconds
#
# Revision: 1
# Processed by: cddbd v1.5.2PL0 Copyright (c) Steve Scherf et al.
# Submitted via: ExactAudioCopy v0.99pb5
#
DISCID=160d1915
DTITLE=Rhys Jones, Jeff Miller, Jim Nelson - All I've Got's Done Gone
DYEAR=2000
DGENRE=Oldtime
TTITLE0=Rye Straw (fiddle GDAE, banjo gDGBD)
TTITLE1=Twin Sisters (fiddle GDAE, banjo aDADE)
TTITLE2=Half Past Four (fiddle AEAE, banjo aEAC#E)
TTITLE3=Old Molly Hare (fiddle GDAE, banjo aDADE)
TTITLE4=Blackberry Blossom (fiddle GDAE, banjo gDGBD)
TTITLE5=Silver Lake (fiddle ADAD, banjo aDADE)
TTITLE6=All I've Got's Done Gone (fiddle GDAE)
TTITLE7=Indian Ate a Woodchuck (fiddle GDAE, banjo aDADE)
TTITLE8=Camp Chase (fiddle AEAE)
TTITLE9=Cuckoo's Nest (fiddle GDAE, banjo aDADE)
TTITLE10=Red Bird (fiddle AEAE, banjo aEAC#E)
TTITLE11=Waynesboro (fiddle GDAE, banjo gDGBD)
TTITLE12=I'll Reap What I've Sown (fiddle AEAE, banjo aEAC#E)
TTITLE13=Tennessee Mountain Fox Chase (fiddle GDAE, banjo gCGCD)
TTITLE14=Washington's March (fiddle DDAD, banjo aDADE)
TTITLE15=Little Boy, Where'd You Get Your Britches (fiddle GDAE, banjo
TTITLE15=gDGBD)
TTITLE16=Bob Wills Tune (fiddle ADAD, banjo aDADE)
TTITLE17=Brushy Run (fiddle GDAE, banjo gDGBD)
TTITLE18=Old Sledge (fiddle ADAD)
TTITLE19=Salt River (fiddle GDAE, banjo aEAC#E)
TTITLE20=Dry and Dusty (fiddle DDAD, banjo aDADE)
EXTD=YEAR: 2000
EXTT0=
EXTT1=
EXTT2=
EXTT3=
EXTT4=
EXTT5=
EXTT6=
EXTT7=
EXTT8=
EXTT9=
EXTT10=
EXTT11=
EXTT12=
EXTT13=
EXTT14=
EXTT15=
EXTT16=
EXTT17=
EXTT18=
EXTT19=
EXTT20=
PLAYORDER=
